<svg height="437pt" viewBox="-114 0 437 437.816" width="437pt" xmlns="http://www.w3.org/2000/svg"><path d="m195.839844 376h-43.433594c-3.234375 0-6.148438-1.949219-7.386719-4.9375s-.554687-6.429688 1.734375-8.71875l50.34375-50.34375h-44.691406c-3.234375 0-6.148438-1.949219-7.386719-4.9375s-.554687-6.429688 1.734375-8.71875l50.34375-50.34375h-44.691406c-3.234375 0-6.148438-1.949219-7.386719-4.9375s-.554687-6.429688 1.734375-8.71875l50.34375-50.34375h-44.691406c-3.234375 0-6.148438-1.949219-7.386719-4.9375s-.554687-6.429688 1.734375-8.71875l50.34375-50.34375h-28.691406c-13.253906 0-24-10.746094-24-24v-40c0-4.417969 3.582031-8 8-8h32v-16h-160v16h32c4.421875 0 8 3.582031 8 8v40c0 13.253906-10.742188 24-24 24h-28.6875l50.34375 50.34375c2.289062 2.289062 2.972656 5.730469 1.734375 8.71875s-4.152344 4.9375-7.390625 4.9375h-44.6875l50.34375 50.34375c2.289062 2.289062 2.972656 5.730469 1.734375 8.71875s-4.152344 4.9375-7.390625 4.9375h-44.6875l50.34375 50.34375c2.289062 2.289062 2.972656 5.730469 1.734375 8.71875s-4.152344 4.9375-7.390625 4.9375h-44.6875l50.34375 50.34375c2.289062 2.289062 2.972656 5.730469 1.734375 8.71875s-4.152344 4.9375-7.390625 4.9375h-43.429688l67.429688 61.816406v-260.9375c-.191406-11.222656 7.265625-21.140625 18.097656-24.078125 1.96875-.515625 3.996094-.78125 6.03125-.800781 13.179688.136719 23.808594 10.820312 23.871094 24v261.816406zm0 0"/><path d="m.40625 0h208v16h-208zm0 0"/></svg>