<svg xmlns="http://www.w3.org/2000/svg" xmlns:xlink="http://www.w3.org/1999/xlink" x="0px" y="0px"
	 viewBox="0 0 512 512" style="enable-background:new 0 0 512 512;" xml:space="preserve">
<g>
	<g>
		<path d="M501.333,85.333H384V74.667c0-2.833-1.125-5.542-3.125-7.542l-21.333-21.333c-2-2-4.708-3.125-7.542-3.125h-40.146
			l-40.417-20.208l-0.048,0.096c-1.439-0.723-3.001-1.221-4.723-1.221h-224C19.135,21.333,0,40.469,0,64v64
			c0,23.531,19.135,42.667,42.667,42.667H82.99L54.177,314.74l-20.344,20.344c-7.948,7.938-12.5,18.938-12.5,30.167V448
			c0,23.531,19.135,42.667,42.667,42.667h128c23.531,0,42.667-19.135,42.667-42.667v-76.219c0-16.271-9.042-30.896-23.583-38.167
			l-39.5-19.75l9.135-68.531H192c5.271,0,9.75-3.854,10.542-9.063l6.521-42.917c0.469-3.073-0.427-6.198-2.448-8.552
			c-2.031-2.365-4.99-3.719-8.094-3.719h-9.237l1.388-10.417h75.995c1.721,0,3.284-0.499,4.723-1.221l0.048,0.096l40.417-20.208H352
			c2.833,0,5.542-1.125,7.542-3.125l21.333-21.333c2-2,3.125-4.708,3.125-7.542v-10.667h117.333c5.896,0,10.667-4.771,10.667-10.667
			S507.229,85.333,501.333,85.333z M117.333,128h-64c-5.896,0-10.667-4.771-10.667-10.667c0-5.896,4.771-10.667,10.667-10.667h64
			c5.896,0,10.667,4.771,10.667,10.667C128,123.229,123.229,128,117.333,128z M117.333,85.333h-64
			c-5.896,0-10.667-4.771-10.667-10.667C42.667,68.771,47.438,64,53.333,64h64C123.229,64,128,68.771,128,74.667
			C128,80.562,123.229,85.333,117.333,85.333z"/>
	</g>
</g>
</svg>
