<svg id="Solid" height="512" viewBox="0 0 512 512" width="512" xmlns="http://www.w3.org/2000/svg"><g><path d="m370.036 175.809-25.943-25.944a104.841 104.841 0 0 1 -7.566-8.429l-50.078 50.079 36.851 31.032z"/><path d="m387.09 170.15h19.228a8 8 0 0 1 7.59 10.53l-4.093 12.279 29.031 29.031a2 2 0 0 0 2.828 0l53.74-53.74a2 2 0 0 0 0-2.829l-29.03-29.03-12.28 4.093a8 8 0 0 1 -10.531-7.589v-19.314l-59.626-59.627a88.132 88.132 0 0 0 3.143 116.196z"/><path d="m208 319.9v-48h-1.94l-189.474 189.478a2 2 0 0 0 0 2.827l31.114 31.113a2 2 0 0 0 2.827 0l167.413-167.418h-1.94a8 8 0 0 1 -8-8z"/><path d="m479.414 66.431a2 2 0 0 0 0-2.828l-31.114-31.113a2 2 0 0 0 -2.827 0l-30.181 30.182 33.94 33.941z"/><path d="m372.593 42.6-22.588-22.587a88.15 88.15 0 0 0 .044 112.68 104.09 104.09 0 0 1 22.544-90.093z"/><path d="m414.6 353.252a15.893 15.893 0 0 0 -11.313 4.686l-45.255 45.255a16 16 0 1 0 22.627 22.627l45.254-45.255a16 16 0 0 0 -11.313-27.313z"/><path d="m489.557 376.324-59.4-59.4a22.022 22.022 0 0 0 -31.112 0l-82.025 82.024a22.024 22.024 0 0 0 0 31.112l59.4 59.4a22.034 22.034 0 0 0 28.306 2.375l-2.145-4.288a27.963 27.963 0 0 1 5.244-32.321l47.5-47.5a27.971 27.971 0 0 1 32.322-5.245l4.292 2.146a22.013 22.013 0 0 0 -2.378-28.306zm-52.327 15.556-45.253 45.255a32 32 0 0 1 -45.256-45.256l45.255-45.255a31.794 31.794 0 0 1 22.627-9.372 32 32 0 0 1 22.625 54.628z"/><path d="m386.694 296.854-329.373-277.378-40.009 53.347 18.726 39.077h27.962a8 8 0 0 1 8 8v40h48a8 8 0 0 1 8 8v40h40a8 8 0 0 1 8 8v40h40a8 8 0 0 1 8 8v48h40a8 8 0 0 1 8 8v36.687l32.021 32.021 87.725-87.057zm-31.8 16.457-11.794-10.811 11-12 11.8 10.811z"/></g></svg>