<svg xmlns="http://www.w3.org/2000/svg" xmlns:xlink="http://www.w3.org/1999/xlink" x="0px" y="0px"
	 viewBox="0 0 512 512" style="enable-background:new 0 0 512 512;" xml:space="preserve">
<g>
	<g>
		<path d="M201.062,43.452V24.166c0-13.21-10.747-23.957-23.956-23.957H73.797c-13.21,0-23.957,10.748-23.957,23.957v18.557
			l60.615,14.147v40.501l-13.777,7.03l13.632,26.718l0.146-0.074v26.319l-13.777,7.03l13.632,26.718l0.146-0.074v27.758
			l-13.777,7.03l13.632,26.718l0.146-0.074v24.88l-13.777,7.03l13.632,26.718l0.146-0.074v27.758l-13.777,7.03l13.632,26.718
			l0.146-0.074v27.758l-13.777,7.03l13.632,26.717l0.146-0.074v26.32l-13.777,7.03l13.632,26.718l0.146-0.074v18.078h29.994v-33.381
			l12.974-6.62l-12.974-25.428v-27.944l12.974-6.62l-12.974-25.428V357.15l12.974-6.62l-12.974-25.428v-29.384l12.974-6.62
			l-12.974-25.428v-26.509l12.974-6.62l-12.974-25.428V175.73l12.974-6.62l-12.974-25.428v-27.944l12.974-6.62l-12.981-25.426
			V56.987L201.062,43.452z"/>
	</g>
</g>
<g>
	<g>
		<polygon points="361.64,511.947 361.693,512 361.746,511.947 		"/>
	</g>
</g>
<g>
	<g>
		<polygon points="462.16,271.86 440.952,250.652 431.681,259.923 431.681,232.349 462.16,201.871 440.952,180.662 431.681,189.932 
			431.681,29.994 451.556,29.994 451.556,0 271.825,0 271.825,29.994 291.703,29.994 291.703,190.272 282.43,180.999 
			261.221,202.208 291.703,232.689 291.703,260.263 282.43,250.99 261.221,272.197 291.703,302.679 291.703,330.252 282.43,320.979 
			261.221,342.188 291.703,372.67 291.703,399.593 282.586,390.476 261.377,411.685 291.703,442.011 346.696,497.004 
			346.696,173.75 376.69,173.75 376.69,497.003 431.681,442.011 431.681,442.008 462.16,411.53 440.952,390.321 431.681,399.591 
			431.681,372.33 462.16,341.85 440.952,320.642 431.681,329.912 431.681,302.339 		"/>
	</g>
</g>
</svg>
