<?xml version="1.0" standalone="no"?>
<!DOCTYPE svg PUBLIC "-//W3C//DTD SVG 20010904//EN"
 "http://www.w3.org/TR/2001/REC-SVG-20010904/DTD/svg10.dtd">
<svg version="1.0" xmlns="http://www.w3.org/2000/svg"
 width="300.000000pt" height="300.000000pt" viewBox="0 0 300.000000 300.000000"
 preserveAspectRatio="xMidYMid meet">
<metadata>
Created by potrace 1.14, written by Peter Selinger 2001-2017
</metadata>
<g transform="translate(0.000000,300.000000) scale(0.100000,-0.100000)"
fill="#000000" stroke="none">
<path d="M1375 2304 c-11 -2 -51 -11 -88 -20 -337 -77 -605 -405 -611 -749
l-1 -50 50 3 c27 2 53 6 56 8 4 2 7 19 7 38 0 154 80 335 203 456 145 144 290
204 489 204 116 0 165 -9 259 -47 184 -74 322 -212 393 -392 24 -62 27 -71 40
-165 15 -107 11 -101 70 -98 l53 3 -3 45 c-22 354 -266 654 -607 745 -58 16
-270 29 -310 19z"/>
<path d="M1392 1918 c-57 -57 -103 -96 -101 -88 1 8 1 31 0 51 -1 30 -7 38
-40 57 l-38 22 -24 -28 c-13 -15 -31 -36 -39 -46 -14 -18 -14 -19 7 -8 39 21
43 16 43 -71 l0 -82 -147 -147 -148 -147 -65 -6 c-36 -4 -85 -8 -110 -10 -72
-6 -192 -16 -230 -20 -19 -2 -66 -6 -105 -9 -38 -4 -88 -8 -110 -10 -22 -2
-76 -7 -120 -11 -44 -3 -82 -8 -84 -11 -2 -2 134 -4 302 -4 266 0 307 -2 307
-15 0 -47 79 -227 132 -301 22 -31 28 -49 25 -72 -7 -46 17 -76 58 -69 27 4
42 -2 91 -39 66 -50 178 -107 251 -129 174 -51 366 -43 533 22 71 29 169 85
213 123 18 16 38 24 55 22 15 -2 22 1 16 5 -6 5 -8 17 -4 28 6 17 7 16 14 -8
6 -24 11 -27 46 -27 l40 0 -2 60 c-2 41 -6 60 -15 60 -8 0 0 21 20 52 44 70
71 129 97 216 l22 72 326 0 c179 0 323 2 321 4 -2 3 -40 7 -84 11 -44 3 -98 8
-120 10 -22 2 -69 6 -105 9 -91 8 -188 17 -235 21 -22 2 -78 7 -125 11 -47 4
-92 8 -100 10 -8 1 -27 3 -41 3 -21 1 -89 64 -321 296 -162 162 -296 295 -299
295 -2 0 -51 -46 -107 -102z m361 -313 l254 -255 76 0 c86 0 86 -1 62 -69 -23
-67 -46 -112 -86 -171 -56 -82 -81 -106 -106 -102 -18 3 -23 -1 -23 -20 0 -14
-13 -33 -35 -51 -33 -26 -35 -27 -36 -7 -1 11 -2 26 -3 33 -1 7 -16 12 -41 12
l-40 0 -1 -42 c0 -36 3 -43 19 -43 14 0 18 6 16 28 -2 15 1 28 6 30 9 2 11
-10 6 -48 -1 -8 -25 -25 -54 -37 -176 -75 -368 -78 -550 -7 -73 28 -74 30 -80
84 -3 33 -6 35 -41 37 -24 1 -39 -3 -42 -12 -13 -32 -147 126 -199 233 -13 26
-30 71 -38 100 l-16 52 97 1 97 0 250 254 c138 139 251 254 252 254 1 1 116
-114 256 -254z m372 -655 c0 -27 -3 -50 -7 -50 -8 0 -13 35 -8 55 1 6 4 17 5
25 4 20 5 20 8 20 1 0 2 -22 2 -50z m-1019 -15 c1 -8 -1 -15 -6 -15 -10 0 -20
26 -13 34 8 8 16 -1 19 -19z m-200 -2 c18 -24 17 -33 -1 -33 -8 0 -15 3 -16 8
0 4 -2 15 -4 25 -2 9 -1 17 2 17 3 0 12 -8 19 -17z"/>
<path d="M1287 1604 c-240 -239 -272 -274 -207 -223 25 20 113 84 195 144 83
59 166 120 186 136 l36 28 179 -130 c99 -71 202 -146 229 -166 28 -19 48 -33
45 -30 -3 4 -105 107 -228 230 l-222 223 -213 -212z"/>
<path d="M1431 1536 c-24 -13 -50 -51 -51 -73 0 -9 16 -13 48 -13 27 0 51 2
53 4 2 3 3 25 1 50 -4 49 -12 54 -51 32z"/>
<path d="M1518 1528 c-2 -13 -1 -35 1 -50 3 -26 6 -28 52 -28 28 0 49 5 49 10
0 24 -30 67 -55 78 -36 17 -43 15 -47 -10z"/>
<path d="M1386 1413 c-3 -4 -6 -26 -6 -50 0 -40 2 -43 28 -44 15 -1 34 -2 42
-3 27 -3 35 12 32 57 l-4 45 -43 0 c-24 0 -46 -2 -49 -5z"/>
<path d="M1519 1401 c-2 -35 3 -76 12 -81 4 -3 26 -4 49 -2 l40 4 0 49 0 49
-50 -1 c-38 -1 -50 -5 -51 -18z"/>
<path d="M1298 1248 c-57 -43 -34 -168 31 -168 9 0 25 -9 34 -21 21 -23 50
-22 55 4 2 12 -1 15 -12 11 -20 -8 -20 0 -1 30 23 34 22 92 -2 124 -23 31 -77
41 -105 20z m69 -72 c1 -51 1 -53 -23 -48 -21 4 -24 10 -24 51 0 91 43 89 47
-3z m-17 -76 c0 -5 -4 -10 -10 -10 -5 0 -10 5 -10 10 0 6 5 10 10 10 6 0 10
-4 10 -10z"/>
<path d="M1476 1238 c-10 -14 -12 -27 -6 -37 6 -11 1 -22 -16 -38 -30 -28 -30
-38 0 -68 17 -17 31 -23 48 -19 12 3 38 5 56 5 33 -2 40 7 20 27 -9 9 -9 18 0
37 7 14 12 32 12 40 0 23 -16 17 -17 -6 -3 -31 -13 -36 -29 -15 -12 17 -12 22
2 37 12 14 13 22 4 38 -14 28 -55 27 -74 -1z m59 -27 c-10 -16 -25 -3 -25 22
0 20 1 20 16 5 9 -9 13 -21 9 -27z m-26 -76 c19 -34 17 -51 -6 -37 -22 14 -36
72 -17 72 1 0 11 -16 23 -35z"/>
<path d="M1621 1241 c-24 -44 -8 -73 52 -99 32 -14 36 -38 7 -47 -23 -7 -50
10 -50 31 0 8 -4 14 -10 14 -14 0 -13 -33 2 -48 7 -7 28 -12 48 -12 41 0 70
24 70 58 0 21 -43 62 -66 62 -7 0 -18 9 -24 19 -8 16 -6 21 12 27 16 5 27 1
40 -16 21 -25 38 -19 22 8 -7 10 -27 18 -52 20 -32 2 -43 -1 -51 -17z"/>
<path d="M1628 998 c9 -9 15 -9 24 0 9 9 7 12 -12 12 -19 0 -21 -3 -12 -12z"/>
<path d="M1241 987 c-6 -8 -8 -17 -4 -20 3 -4 6 -21 7 -39 1 -27 5 -34 26 -36
14 -2 20 1 15 5 -12 9 -13 52 -2 71 5 7 3 12 -3 12 -6 0 -8 5 -5 10 9 15 -21
12 -34 -3z"/>
<path d="M1562 984 c-7 -8 -18 -12 -23 -8 -17 10 -56 -5 -61 -24 -7 -24 8 -62
24 -62 10 0 12 12 10 40 -4 41 4 50 26 28 9 -9 12 -9 12 0 0 7 5 12 11 12 5 0
9 -8 8 -17 -4 -44 2 -63 19 -63 16 0 19 25 13 103 -1 12 -25 7 -39 -9z"/>
<path d="M1161 962 c-8 -15 -4 -24 21 -46 33 -29 57 -23 43 11 -5 10 -9 25 -9
33 -2 23 -43 25 -55 2z m49 -2 c0 -5 -4 -10 -9 -10 -6 0 -13 5 -16 10 -3 6 1
10 9 10 9 0 16 -4 16 -10z"/>
<path d="M1300 935 c0 -33 4 -45 15 -45 8 0 16 8 16 18 1 9 2 24 3 32 0 9 9
14 20 12 11 -2 17 1 14 10 -3 7 -19 14 -36 15 -32 3 -32 2 -32 -42z"/>
<path d="M1379 965 c-5 -72 -6 -70 39 -72 l42 -2 0 45 c0 32 -4 44 -15 44 -10
0 -15 -11 -15 -35 0 -19 -4 -35 -10 -35 -5 0 -10 16 -10 35 0 24 -5 35 -15 35
-8 0 -15 -7 -16 -15z"/>
<path d="M1625 935 c0 -36 3 -45 18 -45 14 0 17 9 17 45 0 36 -3 45 -17 45
-15 0 -18 -9 -18 -45z"/>
<path d="M1678 955 c-16 -35 -1 -59 40 -63 27 -3 32 1 38 24 9 35 -6 58 -39
62 -21 3 -30 -3 -39 -23z m48 -26 c0 -17 -4 -28 -10 -26 -9 3 -12 25 -7 61 2
21 16 -8 17 -35z"/>
<path d="M1537 910 c-3 -11 -1 -20 4 -20 5 0 9 9 9 20 0 11 -2 20 -4 20 -2 0
-6 -9 -9 -20z"/>
<path d="M1150 910 c0 -5 9 -14 20 -20 23 -12 26 -5 6 16 -17 16 -26 18 -26 4z"/>
<path d="M55 1350 c-3 -5 -1 -10 4 -10 6 0 11 5 11 10 0 6 -2 10 -4 10 -3 0
-8 -4 -11 -10z"/>
</g>
</svg>
