<svg id="Layer_1" data-name="Layer 1" xmlns="http://www.w3.org/2000/svg" viewBox="0 0 342.52 57.18"><defs><style>.cls-1{fill:#343741;}.cls-2{fill:#1d1d1b;}.cls-3{fill:#008fb4;}.cls-4{fill:none;stroke:#008fb4;stroke-miterlimit:10;stroke-width:1.22px;}</style></defs><path class="cls-1" d="M125.49,53.46V39.52h8.29v1.15h-7v5h6.76v1.15h-6.76V52.3h7.32v1.16Z" transform="translate(-0.52 0.02)"/><path class="cls-1" d="M137.51,53.46h-1.16V46c0-.76-.06-1.53-.1-2.19h1.2l.06,1.43,0,0a3.34,3.34,0,0,1,3-1.76c3.16,0,3.41,2.8,3.41,3.92v6.07h-1.15V47.2a2.4,2.4,0,0,0-2.55-2.66c-1.92,0-2.78,1.6-2.78,3.34Z" transform="translate(-0.52 0.02)"/><path class="cls-1" d="M153.52,43.76h1.19c0,.66-.09,1.43-.09,2.19v5.81c0,1.93.09,4-2.05,5a4.38,4.38,0,0,1-2.2.45c-1.76,0-3.85-.6-3.85-2.61h1.26c.13,1.16,1.51,1.55,2.74,1.55a2.83,2.83,0,0,0,2.94-2.69V51.6h0a3.55,3.55,0,0,1-3.15,1.82c-2.91,0-4.17-2.22-4.17-4.89s1.18-5.06,4.13-5.06a3.71,3.71,0,0,1,3.19,1.8l0-.08Zm-3.17.78c-2.11,0-3,2.12-3,3.9s.9,3.92,3,3.92,3.07-2.07,3.07-4S152.43,44.54,150.35,44.54Z" transform="translate(-0.52 0.02)"/><path class="cls-1" d="M158.49,41h-1.35V39.52h1.35Zm-.09,2.8v9.7h-1.16v-9.7Z" transform="translate(-0.52 0.02)"/><path class="cls-1" d="M162.23,53.46h-1.16V46c0-.76,0-1.53-.09-2.19h1.19l.06,1.43,0,0a3.34,3.34,0,0,1,3-1.76c3.17,0,3.42,2.8,3.42,3.92v6.07h-1.16V47.2A2.39,2.39,0,0,0,165,44.54c-1.91,0-2.78,1.6-2.78,3.34Z" transform="translate(-0.52 0.02)"/><path class="cls-1" d="M172.09,48.88c0,2.07,1,3.81,3.36,3.81a2.9,2.9,0,0,0,2.81-2.32h1.21a4.07,4.07,0,0,1-4.38,3.38c-2.9,0-4.25-2.49-4.25-5.14s1.45-5.14,4.32-5.14c3.25,0,4.43,2.38,4.43,5.41Zm6.24-1.06c-.13-1.87-1.14-3.28-3.15-3.28s-2.89,1.58-3.05,3.28Z" transform="translate(-0.52 0.02)"/><path class="cls-1" d="M182.51,48.88c0,2.07,1,3.81,3.37,3.81a2.89,2.89,0,0,0,2.8-2.32h1.21a4.07,4.07,0,0,1-4.38,3.38c-2.9,0-4.25-2.49-4.25-5.14s1.45-5.14,4.33-5.14c3.24,0,4.42,2.38,4.42,5.41Zm6.24-1.06c-.13-1.87-1.14-3.28-3.14-3.28s-2.9,1.58-3.06,3.28Z" transform="translate(-0.52 0.02)"/><path class="cls-1" d="M193.36,53.46h-1.15V46c0-.76-.06-1.53-.1-2.19h1.2l.05,1.43h0a2.51,2.51,0,0,1,2.19-1.72c.38,0,.77,0,1.16,0v1.12c-.24,0-.49-.07-.72-.07-1.72,0-2.63,1.23-2.67,3.09Z" transform="translate(-0.52 0.02)"/><path class="cls-1" d="M198.68,48.88c0,2.07,1,3.81,3.36,3.81a2.89,2.89,0,0,0,2.8-2.32h1.22a4.07,4.07,0,0,1-4.39,3.38c-2.89,0-4.24-2.49-4.24-5.14s1.44-5.14,4.32-5.14c3.25,0,4.42,2.38,4.42,5.41Zm6.24-1.06c-.14-1.87-1.14-3.28-3.15-3.28s-2.9,1.58-3.05,3.28Z" transform="translate(-0.52 0.02)"/><path class="cls-1" d="M215.19,52l0-.08a3.94,3.94,0,0,1-3.32,1.8c-2.88,0-4-2.74-4-5.18s1.1-5.1,4-5.1a3.88,3.88,0,0,1,3.32,1.76l0,0V39.52h1.16V51.28c0,.75.06,1.52.09,2.18h-1.19ZM212,44.54c-2.2,0-2.91,2-2.91,3.9s.52,4.25,2.74,4.25c2.53,0,3.3-2.11,3.3-4.31C215.15,46.41,214.28,44.54,212,44.54Z" transform="translate(-0.52 0.02)"/><path class="cls-1" d="M227.65,43.47c1.83,0,3.38.64,3.53,2.69h-1.25c-.12-1.22-1.2-1.62-2.4-1.62s-2.18.42-2.18,1.56c0,1.43,1.87,1.29,4.5,2.22a2.37,2.37,0,0,1,1.64,2.26c0,2.18-2,3.17-4.07,3.17-1.68,0-3.61-.79-3.65-2.94H225c.1,1.45,1.37,1.88,2.69,1.88s2.53-.58,2.53-1.93-1.53-1.63-3.07-2-3.07-.82-3.07-2.61C224.1,44.17,226,43.47,227.65,43.47Z" transform="translate(-0.52 0.02)"/><path class="cls-1" d="M234.93,41h-1.35V39.52h1.35Zm-.1,2.8v9.7h-1.16v-9.7Z" transform="translate(-0.52 0.02)"/><path class="cls-1" d="M244.29,52l0-.08a3.94,3.94,0,0,1-3.32,1.8c-2.88,0-4-2.74-4-5.18s1.1-5.1,4-5.1a3.87,3.87,0,0,1,3.32,1.76l0,0V39.52h1.16V51.28c0,.75.06,1.52.1,2.18h-1.2Zm-3.17-7.49c-2.2,0-2.91,2-2.91,3.9s.52,4.25,2.74,4.25c2.53,0,3.3-2.11,3.3-4.31C244.25,46.41,243.38,44.54,241.12,44.54Z" transform="translate(-0.52 0.02)"/><path class="cls-1" d="M249.32,41H248V39.52h1.35Zm-.09,2.8v9.7h-1.16v-9.7Z" transform="translate(-0.52 0.02)"/><path class="cls-1" d="M253.06,53.46h-1.15V46c0-.76-.06-1.53-.1-2.19H253l.05,1.43,0,0a3.34,3.34,0,0,1,3-1.76c3.16,0,3.41,2.8,3.41,3.92v6.07h-1.16V47.2a2.39,2.39,0,0,0-2.54-2.66c-1.92,0-2.79,1.6-2.79,3.34Z" transform="translate(-0.52 0.02)"/><path class="cls-1" d="M269.07,43.76h1.2c0,.66-.09,1.43-.09,2.19v5.81c0,1.93.09,4-2.05,5a4.4,4.4,0,0,1-2.2.45c-1.76,0-3.85-.6-3.85-2.61h1.26c.13,1.16,1.5,1.55,2.74,1.55A2.83,2.83,0,0,0,269,53.42V51.6h0a3.56,3.56,0,0,1-3.15,1.82c-2.92,0-4.17-2.22-4.17-4.89s1.18-5.06,4.13-5.06a3.72,3.72,0,0,1,3.19,1.8l0-.08Zm-3.16.78c-2.11,0-3,2.12-3,3.9s.91,3.92,3,3.92,3.07-2.07,3.07-4S268,44.54,265.91,44.54Z" transform="translate(-0.52 0.02)"/><path class="cls-2" d="M16.16,53.47H13.29V46.85c0-1.62-.72-2.15-1.56-2.15-1.44,0-2,.94-2,2.23v6.54H6.9V46.91c0-.92,0-2.21-1.72-2.21-1.36,0-1.79.94-1.79,2.13v6.64H.52V42.57H3.26v1.6h.05a3.25,3.25,0,0,1,3.1-1.89,3.12,3.12,0,0,1,3,1.74,3.41,3.41,0,0,1,2.91-1.74,3.48,3.48,0,0,1,3.8,3.65v7.54Z" transform="translate(-0.52 0.02)"/><path class="cls-2" d="M27.6,51.34c0,1.29.29,1.58.64,1.7v.43h-3.1a4.53,4.53,0,0,1-.27-1.29,4.44,4.44,0,0,1-3.53,1.58A3.07,3.07,0,0,1,18,50.58,3.33,3.33,0,0,1,21.2,47.1l2.58-.39c.45-.07,1-.25,1-.86,0-1.21-1.15-1.27-1.89-1.27a1.53,1.53,0,0,0-1.76,1.51H18.36c.33-3.34,2.65-3.81,4.89-3.81,1.54,0,4.35.47,4.35,3.16v5.9Zm-2.81-3.18a4.08,4.08,0,0,1-1.95.6c-1.07.18-1.95.45-1.95,1.64a1.25,1.25,0,0,0,1.33,1.31,2.38,2.38,0,0,0,2.57-2.15v-1.4Z" transform="translate(-0.52 0.02)"/><path class="cls-2" d="M33.13,42.57v10.9H30.25V42.57Zm0-1.16H30.25V38.74h2.88v2.67Z" transform="translate(-0.52 0.02)"/><path class="cls-2" d="M38.53,44h0a3.52,3.52,0,0,1,3.17-1.7c2.41,0,4.54,1.85,4.54,5.62,0,3-1.36,5.86-4.6,5.86a3.46,3.46,0,0,1-3.16-1.66h0v1.37H35.66V38.75h2.87V44Zm2.35.78c-2,0-2.47,1.76-2.47,3.51S39.13,51.4,41,51.4s2.36-2,2.36-3.3c0-1.72-.61-3.34-2.44-3.34Z" transform="translate(-0.52 0.02)"/><path class="cls-2" d="M57.61,50.27a4.73,4.73,0,0,1-4.81,3.49c-3.08,0-5.44-1.48-5.44-6,0-1.32.45-5.52,5.24-5.52,2.16,0,5.13,1,5.13,6v.51H50.24c.08.82.24,2.66,2.56,2.66a1.84,1.84,0,0,0,1.85-1.19Zm-2.83-3.34a2.21,2.21,0,0,0-2.22-2.29c-1.36,0-2.08.86-2.24,2.29Z" transform="translate(-0.52 0.02)"/><path class="cls-2" d="M69.25,49.49a4.67,4.67,0,0,1-5,4.27c-4.11,0-5.05-3.14-5.05-5.43,0-3.53,1.54-6,5.24-6,1.72,0,4.55.78,4.82,4.18H66.35a1.85,1.85,0,0,0-1.9-1.76c-1.81,0-2.28,1.8-2.28,3.16,0,1.18,0,3.54,2.21,3.54a2,2,0,0,0,2-1.91Z" transform="translate(-0.52 0.02)"/><path class="cls-2" d="M75.93,35.7a2.51,2.51,0,0,1-1.8.72,2.44,2.44,0,0,1-1.82-.74,2.5,2.5,0,0,1-.74-1.83,2.57,2.57,0,0,1,5.13,0A2.5,2.5,0,0,1,75.93,35.7Zm-3.29-3.32a2.12,2.12,0,0,0,0,3,2,2,0,0,0,1.49.63,2,2,0,0,0,1.48-.63,2.12,2.12,0,0,0,0-3,2.07,2.07,0,0,0-3,0ZM73,35.27V32.43h1.38a1.48,1.48,0,0,1,.56.15.72.72,0,0,1,.38.68.62.62,0,0,1-.21.52.94.94,0,0,1-.49.19.92.92,0,0,1,.41.16.75.75,0,0,1,.26.63v.34a.24.24,0,0,0,0,.08l0,.08h-.71a1.69,1.69,0,0,1,0-.39,1.56,1.56,0,0,0,0-.35.36.36,0,0,0-.21-.21.73.73,0,0,0-.25,0h-.32v1ZM74.36,33a1.23,1.23,0,0,0-.43-.06h-.18v.83H74a.66.66,0,0,0,.4-.1.39.39,0,0,0,.15-.34A.33.33,0,0,0,74.36,33Z" transform="translate(-0.52 0.02)"/><path class="cls-3" d="M49.55,36.42a15.31,15.31,0,0,0-4.33-10.74h0a14.39,14.39,0,0,0-10.33-4.4h0a14.37,14.37,0,0,0-10.33,4.4h0a15.28,15.28,0,0,0-4.34,10.74H11.51A24,24,0,0,1,18.32,19.6h0a23.09,23.09,0,0,1,16.57-7h0a23.09,23.09,0,0,1,16.56,7h0a24,24,0,0,1,6.81,16.82H49.55Z" transform="translate(-0.52 0.02)"/><path class="cls-3" d="M38.55,36.43a3.94,3.94,0,0,0-1.11-2.78h0a3.55,3.55,0,0,0-2.56-1.09h0a3.55,3.55,0,0,0-2.55,1.09h0a3.94,3.94,0,0,0-1.11,2.78H22.51a12.64,12.64,0,0,1,3.59-8.86h0a12.25,12.25,0,0,1,8.78-3.72h0a12.25,12.25,0,0,1,8.79,3.72h0a12.68,12.68,0,0,1,3.59,8.86H38.55Z" transform="translate(-0.52 0.02)"/><path class="cls-3" d="M60.55,36.42A26.69,26.69,0,0,0,53,17.71h0A25.17,25.17,0,0,0,34.89,10h0a25.18,25.18,0,0,0-18.11,7.7h0A26.68,26.68,0,0,0,9.23,36.42H.52a35.37,35.37,0,0,1,10-24.79h0A34,34,0,0,1,34.89,1.3h0A34,34,0,0,1,59.23,11.63h0a35.42,35.42,0,0,1,10,24.79H60.55Z" transform="translate(-0.52 0.02)"/><line class="cls-4" x1="98.99" y1="54.78" x2="98.99"/><path class="cls-1" d="M125.47,31.28V12.68h8.16l3,12.6h.05l2.94-12.6h8v18.6h-4.51V15.72l0-.05-4.35,15.61h-4.64L130,15.54l-.05.06V31.28Z" transform="translate(-0.52 0.02)"/><path class="cls-1" d="M159,31.28a7.55,7.55,0,0,1-.1-1.75h-.05a4.48,4.48,0,0,1-4.12,2.14c-3.07,0-4.66-1.65-4.61-4.3,0-3.15,2.93-4.43,7.16-4.43h1.54c0-1.14.26-2.79-1.7-2.71a1.76,1.76,0,0,0-1.54,2H151a3.5,3.5,0,0,1,2.24-3.48A11,11,0,0,1,157.7,18c2.62,0,5.79,1.1,5.74,4v6.65c0,.54.1,1.11.28,2.65Zm-2.47-2.44c2.11,0,2.29-2,2.29-3.71a6.41,6.41,0,0,0-2.67.28,1.87,1.87,0,0,0-1.29,1.72A1.69,1.69,0,0,0,156.56,28.84Z" transform="translate(-0.52 0.02)"/><path class="cls-1" d="M166.44,16.14V12.68h4.95v3.46Zm0,15.14V18.35h4.89V31.28Z" transform="translate(-0.52 0.02)"/><path class="cls-1" d="M174.31,12.68h4.89v7h.05A5,5,0,0,1,183.19,18c4,0,5.75,3,5.75,6.64,0,3.94-1.76,7.06-6,7.06-1.5,0-3.27-1-3.61-2.29h-.1l-.13,1.9h-4.76ZM179.2,25c0,1.44.44,3.84,2.21,3.84,2.14,0,2.5-2.4,2.5-4.07s-.23-4-2.32-4S179.2,23.27,179.2,25Z" transform="translate(-0.52 0.02)"/><path class="cls-1" d="M195.3,25.8c0,1.67.41,3.11,2.24,3.11a2.13,2.13,0,0,0,2.39-1.85h4.54a4.69,4.69,0,0,1-2.45,3.6,7.55,7.55,0,0,1-4.1,1c-5.17,0-7.23-2.22-7.23-7.29,0-4.1,3.06-6.41,6.95-6.41,5.25,0,6.93,3,6.93,7.83Zm4.63-2.63a3.31,3.31,0,0,0-.59-1.93,1.86,1.86,0,0,0-1.7-.83c-1.7.08-2.11,1.29-2.24,2.76Z" transform="translate(-0.52 0.02)"/><path class="cls-1" d="M215.12,22.89a2.37,2.37,0,0,0-.39-1.52,1.78,1.78,0,0,0-1.52-.57c-1.77,0-1.88,2.68-1.88,4s.11,4,1.88,4,1.91-1.45,1.91-2.61H220a4.86,4.86,0,0,1-2,4.07,8.36,8.36,0,0,1-4.58,1.37c-4.9,0-7.11-2.37-7.11-6.85,0-4.69,3.22-6.85,7.11-6.85,3.27-.06,6.36,1.23,6.59,4.92Z" transform="translate(-0.52 0.02)"/><path class="cls-1" d="M242.57,18.53c-.12-1.67-1.39-2.63-3.5-2.63-3,0-3.5,3.48-3.5,6.26s.59,5.9,3.5,5.9c2.16,0,3.4-.95,3.5-2.73H248c.08,4.69-4.4,6.34-8.91,6.34-5.79,0-8.91-3.48-8.91-9.71s3.12-9.61,8.91-9.66c4.51,0,9,1.54,8.91,6.23Z" transform="translate(-0.52 0.02)"/><path class="cls-1" d="M258.44,31.28a7.55,7.55,0,0,1-.1-1.75h0a4.48,4.48,0,0,1-4.12,2.14c-3.07,0-4.66-1.65-4.61-4.3.05-3.15,2.93-4.43,7.16-4.43h1.54c0-1.14.26-2.79-1.7-2.71a1.76,1.76,0,0,0-1.54,2h-4.61a3.49,3.49,0,0,1,2.24-3.48A10.94,10.94,0,0,1,257.1,18c2.63,0,5.8,1.1,5.75,4v6.65c0,.54.1,1.11.28,2.65ZM256,28.84c2.11,0,2.29-2,2.29-3.71a6.46,6.46,0,0,0-2.68.28,1.87,1.87,0,0,0-1.28,1.72A1.69,1.69,0,0,0,256,28.84Z" transform="translate(-0.52 0.02)"/><path class="cls-1" d="M270.69,19.77a5,5,0,0,1,4.05-1.8,4.52,4.52,0,0,1,4.84,4.66v8.65h-4.9v-7.6c-.05-1.26-.36-2.62-1.88-2.62-2.42,0-2.11,2.65-2.11,2.8v7.42H265.8V21.67a31.06,31.06,0,0,0-.16-3.32h5Z" transform="translate(-0.52 0.02)"/><path class="cls-1" d="M282.73,31.28V12.68H296.9v3.61h-9v3.84h8.29v3.6h-8.29v3.95h9v3.6Z" transform="translate(-0.52 0.02)"/><path class="cls-1" d="M303.4,31.28h-5l4.36-6.75-3.84-6.18h5.64l1.65,4,1.72-4h4.95l-4,6.18,4.38,6.75h-5.72l-2-4.79Z" transform="translate(-0.52 0.02)"/><path class="cls-1" d="M318.38,25.8c0,1.67.41,3.11,2.24,3.11A2.13,2.13,0,0,0,323,27.06h4.54a4.69,4.69,0,0,1-2.45,3.6,7.55,7.55,0,0,1-4.1,1c-5.17,0-7.23-2.22-7.23-7.29,0-4.1,3.06-6.41,7-6.41,5.25,0,6.93,3,6.93,7.83ZM323,23.17a3.31,3.31,0,0,0-.59-1.93,1.86,1.86,0,0,0-1.7-.83c-1.7.08-2.11,1.29-2.24,2.76Z" transform="translate(-0.52 0.02)"/><path class="cls-1" d="M330.1,31.28V12.68H335v18.6Z" transform="translate(-0.52 0.02)"/><path class="cls-1" d="M337.65,13.05h-1v-.37h2.49v.37h-1v2.71h-.43Z" transform="translate(-0.52 0.02)"/><path class="cls-1" d="M342.61,13h0l-1,2.77h-.4l-1-2.77h0v2.77h-.42V12.68h.76l.89,2.54h0l.87-2.54H343v3.08h-.43Z" transform="translate(-0.52 0.02)"/></svg>